# xmcd CD database file
#
# Track frame offsets:
#	150
#	23057
#	37292
#	48132
#
# Disc length: 801 seconds
#
# Revision: 0
# Processed by: cddbd v1.5.1PL0 Copyright (c) Steve Scherf et al.
# Submitted via: CDex 1.51
#
DISCID=2b031f04
DTITLE=CAPTAIN HEDGE HOG - You Can'T Feel The Change Of Seasons
DYEAR=2002
DGENRE=Rock
TTITLE0=You Can'T Feel The Change Of Seasons
TTITLE1=Goin'On
TTITLE2=My Own Way
TTITLE3=Lonely Days
EXTD=YEAR: 2002
EXTT0=
EXTT1=
EXTT2=
EXTT3=
PLAYORDER=
